<svg width="206" height="64" viewBox="0 0 206 64" fill="none" xmlns="http://www.w3.org/2000/svg">
<path d="M5.859 20.088V9.504H8.451V6.75H5.859V2.592H2.565V6.75H0V9.504H2.565V20.088H5.859Z" fill="#69EACB"/>
<path d="M13.7928 20.088V12.798C13.7928 10.8 15.0078 9.342 17.0868 9.342C18.7608 9.342 19.8678 10.422 19.8678 12.663V20.088H23.1618V11.88C23.1618 8.424 21.4338 6.345 18.1398 6.345C16.2228 6.345 14.6568 7.182 13.8198 8.478V0H10.4988V20.088H13.7928Z" fill="#69EACB"/>
<path d="M32.3652 20.439C35.8482 20.439 38.2782 18.684 38.8452 15.768H35.7942C35.4162 17.037 34.2282 17.739 32.4192 17.739C30.2322 17.739 28.9902 16.551 28.7472 14.202L38.7912 14.175V13.176C38.7912 9.018 36.2532 6.345 32.2572 6.345C28.3422 6.345 25.6152 9.234 25.6152 13.419C25.6152 17.55 28.3962 20.439 32.3652 20.439ZM32.2842 9.045C34.2552 9.045 35.5242 10.26 35.5242 12.096H28.8282C29.1522 10.098 30.3402 9.045 32.2842 9.045Z" fill="#69EACB"/>
<path d="M16.782 63.616C24.394 63.616 30.29 59.128 31.522 52.352H25.67C24.614 55.916 21.27 58.204 16.914 58.204C11.018 58.204 7.234 53.804 7.234 46.984C7.234 40.12 10.974 35.808 16.914 35.808C21.182 35.808 24.394 38.008 25.494 41.748H31.434C30.334 34.84 24.658 30.396 17.046 30.396C7.63 30.396 1.338 37.04 1.338 47.028C1.338 57.104 7.41 63.616 16.782 63.616Z" fill="black"/>
<path d="M34.5047 52.176C34.5047 58.952 39.3887 63.616 46.1207 63.616C52.8527 63.616 57.7367 58.952 57.7367 52.176C57.7367 45.4 52.8527 40.736 46.1207 40.736C39.3887 40.736 34.5047 45.4 34.5047 52.176ZM39.8727 52.176C39.8727 48.216 42.4247 45.532 46.1207 45.532C49.8167 45.532 52.3687 48.216 52.3687 52.176C52.3687 56.136 49.8167 58.82 46.1207 58.82C42.4247 58.82 39.8727 56.136 39.8727 52.176Z" fill="black"/>
<path d="M67.4037 63.088V30.352H62.0797V63.088H67.4037Z" fill="black"/>
<path d="M78.4466 63.088V30.352H73.1226V63.088H78.4466Z" fill="black"/>
<path d="M93.8016 63.66C99.4776 63.66 103.438 60.8 104.362 56.048H99.3896C98.7736 58.116 96.8376 59.26 93.8896 59.26C90.3256 59.26 88.3016 57.324 87.9056 53.496L104.274 53.452V51.824C104.274 45.048 100.138 40.692 93.6256 40.692C87.2456 40.692 82.8016 45.4 82.8016 52.22C82.8016 58.952 87.3336 63.66 93.8016 63.66ZM93.6696 45.092C96.8816 45.092 98.9496 47.072 98.9496 50.064H88.0376C88.5656 46.808 90.5016 45.092 93.6696 45.092Z" fill="black"/>
<path d="M107.294 52.176C107.294 59.084 111.606 63.66 118.206 63.66C123.882 63.66 128.106 60.184 128.766 55.124H123.354C122.782 57.5 120.89 58.82 118.206 58.82C114.774 58.82 112.662 56.268 112.662 52.176C112.662 48.084 114.95 45.488 118.382 45.488C120.934 45.488 122.738 46.764 123.354 49.228H128.722C128.15 43.992 124.102 40.692 118.162 40.692C111.738 40.692 107.294 45.444 107.294 52.176Z" fill="black"/>
<path d="M140.153 63.088V45.84H144.377V41.352H140.153V34.576H134.785V41.352H130.605V45.84H134.785V63.088H140.153Z" fill="black"/>
<path d="M150.398 36.996C152.158 36.996 153.61 35.544 153.61 33.74C153.61 31.936 152.158 30.528 150.398 30.528C148.55 30.528 147.098 31.936 147.098 33.74C147.098 35.544 148.55 36.996 150.398 36.996ZM147.714 63.088H153.082V41.352H147.714V63.088Z" fill="black"/>
<path d="M157.352 52.176C157.352 58.952 162.236 63.616 168.968 63.616C175.7 63.616 180.584 58.952 180.584 52.176C180.584 45.4 175.7 40.736 168.968 40.736C162.236 40.736 157.352 45.4 157.352 52.176ZM162.72 52.176C162.72 48.216 165.272 45.532 168.968 45.532C172.664 45.532 175.216 48.216 175.216 52.176C175.216 56.136 172.664 58.82 168.968 58.82C165.272 58.82 162.72 56.136 162.72 52.176Z" fill="black"/>
<path d="M190.207 63.088V51.384C190.207 47.864 192.231 45.576 195.531 45.576C198.303 45.576 200.107 47.336 200.107 50.988V63.088H205.475V49.712C205.475 44.08 202.659 40.692 197.203 40.692C194.255 40.692 191.615 41.968 190.251 44.168L189.811 41.352H184.839V63.088H190.207Z" fill="black"/>
</svg>
