<svg width="99" height="54" viewBox="0 0 99 54" fill="none" xmlns="http://www.w3.org/2000/svg">
<path d="M0 53.2896H1.22V50.3396C1.53 50.8396 2.17 51.1296 2.91 51.1296C4.38 51.1296 5.22 50.0096 5.22 48.4696C5.22 46.9196 4.3 45.9096 2.91 45.9096C2.16 45.9096 1.51 46.2396 1.21 46.8096L1.13 46.0596H0V53.2896ZM1.23 48.5296C1.23 47.6396 1.78 47.0196 2.62 47.0196C3.48 47.0196 3.99 47.6496 3.99 48.5296C3.99 49.4096 3.48 50.0296 2.62 50.0296C1.78 50.0296 1.23 49.4196 1.23 48.5296Z" fill="black" fill-opacity="0.67"/>
<path d="M5.90141 48.5196C5.90141 50.0596 7.01141 51.1196 8.54141 51.1196C10.0714 51.1196 11.1814 50.0596 11.1814 48.5196C11.1814 46.9796 10.0714 45.9196 8.54141 45.9196C7.01141 45.9196 5.90141 46.9796 5.90141 48.5196ZM7.12141 48.5196C7.12141 47.6196 7.70141 47.0096 8.54141 47.0096C9.38141 47.0096 9.96141 47.6196 9.96141 48.5196C9.96141 49.4196 9.38141 50.0296 8.54141 50.0296C7.70141 50.0296 7.12141 49.4196 7.12141 48.5196Z" fill="black" fill-opacity="0.67"/>
<path d="M12.9943 50.9996H14.1843L14.8643 48.8796C15.1143 48.0696 15.2043 47.7196 15.2543 47.4896C15.2943 47.7396 15.4043 48.2096 15.6043 48.8596L16.2843 50.9996H17.4243L19.1343 46.0596H17.8443L17.1843 48.1796C17.0943 48.4896 16.9343 49.0796 16.8543 49.4496C16.7943 49.1196 16.5943 48.3796 16.5343 48.1796L15.8743 46.0596H14.6343L13.9543 48.1796C13.7943 48.6696 13.7043 48.9796 13.6143 49.4596C13.5243 48.9996 13.4243 48.5696 13.3143 48.1796L12.6643 46.0596H11.3943L12.9943 50.9996Z" fill="black" fill-opacity="0.67"/>
<path d="M21.8389 51.1296C23.1289 51.1296 24.0289 50.4796 24.2389 49.3996H23.1089C22.9689 49.8696 22.5289 50.1296 21.8589 50.1296C21.0489 50.1296 20.5889 49.6896 20.4989 48.8196L24.2189 48.8096V48.4396C24.2189 46.8996 23.2789 45.9096 21.7989 45.9096C20.3489 45.9096 19.3389 46.9796 19.3389 48.5296C19.3389 50.0596 20.3689 51.1296 21.8389 51.1296ZM21.8089 46.9096C22.5389 46.9096 23.0089 47.3596 23.0089 48.0396H20.5289C20.6489 47.2996 21.0889 46.9096 21.8089 46.9096Z" fill="black" fill-opacity="0.67"/>
<path d="M28.2953 46.0396C28.0953 45.9896 27.9253 45.9696 27.7553 45.9696C27.0953 45.9696 26.6253 46.2996 26.4153 46.7896L26.3453 46.0696H25.1953V50.9996H26.4153V48.5996C26.4153 47.6396 26.9653 47.1696 27.8453 47.1696H28.2953V46.0396Z" fill="black" fill-opacity="0.67"/>
<path d="M31.1651 51.1296C32.4551 51.1296 33.3551 50.4796 33.5651 49.3996H32.4351C32.2951 49.8696 31.8551 50.1296 31.1851 50.1296C30.3751 50.1296 29.9151 49.6896 29.8251 48.8196L33.5451 48.8096V48.4396C33.5451 46.8996 32.6051 45.9096 31.1251 45.9096C29.6751 45.9096 28.6651 46.9796 28.6651 48.5296C28.6651 50.0596 29.6951 51.1296 31.1651 51.1296ZM31.1351 46.9096C31.8651 46.9096 32.3351 47.3596 32.3351 48.0396H29.8551C29.9751 47.2996 30.4151 46.9096 31.1351 46.9096Z" fill="black" fill-opacity="0.67"/>
<path d="M36.5515 51.1296C37.3015 51.1296 37.9415 50.7996 38.2415 50.2296L38.3215 50.9996H39.4415V43.5596H38.2315V46.6896C37.9215 46.1996 37.3115 45.9096 36.6215 45.9096C35.1315 45.9096 34.2315 47.0096 34.2315 48.5496C34.2315 50.0796 35.1215 51.1296 36.5515 51.1296ZM36.8215 50.0096C35.9715 50.0096 35.4515 49.3896 35.4515 48.5096C35.4515 47.6296 35.9715 46.9996 36.8215 46.9996C37.6715 46.9996 38.2215 47.6196 38.2215 48.5096C38.2215 49.3996 37.6715 50.0096 36.8215 50.0096Z" fill="black" fill-opacity="0.67"/>
<path d="M43.1182 48.5196C43.1182 50.0596 44.2282 51.1196 45.7582 51.1196C47.2882 51.1196 48.3982 50.0596 48.3982 48.5196C48.3982 46.9796 47.2882 45.9196 45.7582 45.9196C44.2282 45.9196 43.1182 46.9796 43.1182 48.5196ZM44.3382 48.5196C44.3382 47.6196 44.9182 47.0096 45.7582 47.0096C46.5982 47.0096 47.1782 47.6196 47.1782 48.5196C47.1782 49.4196 46.5982 50.0296 45.7582 50.0296C44.9182 50.0296 44.3382 49.4196 44.3382 48.5196Z" fill="black" fill-opacity="0.67"/>
<path d="M50.5852 50.9996V48.3396C50.5852 47.5396 51.0452 47.0196 51.7952 47.0196C52.4252 47.0196 52.8352 47.4196 52.8352 48.2496V50.9996H54.0552V47.9596C54.0552 46.6796 53.4152 45.9096 52.1752 45.9096C51.5052 45.9096 50.9052 46.1996 50.5952 46.6996L50.4952 46.0596H49.3652V50.9996H50.5852Z" fill="black" fill-opacity="0.67"/>
<path d="M57.7092 45.7296C57.7092 46.8496 58.3592 47.5596 59.5992 47.8296L60.7592 48.0896C61.3592 48.2196 61.6092 48.5096 61.6092 48.9996C61.6092 49.6096 61.0692 49.9796 60.2192 49.9796C59.3992 49.9796 58.8992 49.6096 58.8892 48.9896H57.6092C57.6392 50.2996 58.6592 51.1296 60.2192 51.1296C61.8292 51.1296 62.8892 50.2496 62.8892 48.8896C62.8892 47.7996 62.2792 47.1596 61.0292 46.8896L59.8792 46.6396C59.2692 46.4996 58.9892 46.2096 58.9892 45.6896C58.9892 45.0796 59.4992 44.6996 60.2892 44.6996C61.0092 44.6996 61.4592 45.0696 61.4892 45.6996H62.7692C62.7292 44.3796 61.7892 43.5596 60.3092 43.5596C58.7692 43.5596 57.7092 44.4496 57.7092 45.7296Z" fill="black" fill-opacity="0.67"/>
<path d="M70.7172 47.3396C70.7172 45.1096 69.2572 43.5596 67.1672 43.5596C65.0772 43.5596 63.6272 45.1196 63.6272 47.3396C63.6272 49.5696 65.0672 51.1196 67.1572 51.1196C69.2572 51.1196 70.7172 49.5596 70.7172 47.3396ZM69.3672 47.3396C69.3672 48.8796 68.5072 49.8896 67.1672 49.8896C65.8272 49.8896 64.9672 48.8996 64.9672 47.3396C64.9672 45.7796 65.8272 44.7896 67.1672 44.7896C68.5072 44.7896 69.3672 45.7796 69.3672 47.3396Z" fill="black" fill-opacity="0.67"/>
<path d="M73.1885 43.6896H71.9085V50.9996H76.2485V49.8196H73.1885V43.6896Z" fill="black" fill-opacity="0.67"/>
<path d="M78.1147 50.9996L78.7047 49.3096H81.4347L82.0247 50.9996H83.3747L80.7347 43.6896H79.4247L76.7847 50.9996H78.1147ZM79.9147 45.8696C79.9847 45.6696 80.0447 45.4496 80.0747 45.3096C80.0947 45.4596 80.1647 45.6796 80.2247 45.8696L81.0647 48.2296H79.0847L79.9147 45.8696Z" fill="black" fill-opacity="0.67"/>
<path d="M85.5513 50.9996V45.8196L88.9913 50.9996H90.2513V43.6896H88.9913V48.8696L85.5613 43.6896H84.2913V50.9996H85.5513Z" fill="black" fill-opacity="0.67"/>
<path d="M92.4995 50.9996L93.0895 49.3096H95.8195L96.4095 50.9996H97.7595L95.1195 43.6896H93.8095L91.1695 50.9996H92.4995ZM94.2995 45.8696C94.3695 45.6696 94.4295 45.4496 94.4595 45.3096C94.4795 45.4596 94.5495 45.6796 94.6095 45.8696L95.4495 48.2296H93.4695L94.2995 45.8696Z" fill="black" fill-opacity="0.67"/>
<path d="M64 18C64 10.268 70.268 4 78 4V4C85.732 4 92 10.268 92 18V18C92 25.732 85.732 32 78 32V32C70.268 32 64 25.732 64 18V18Z" fill="#69EACB"/>
<g filter="url(#filter0_d_502_112)">
<path d="M70 18C70 10.268 76.268 4 84 4V4C91.732 4 98 10.268 98 18V18C98 25.732 91.732 32 84 32V32C76.268 32 70 25.732 70 18V18Z" fill="black"/>
</g>
<path d="M0 17.552C0 22.128 2.944 25.488 7.424 25.488C9.696 25.488 11.648 24.56 12.64 23.088V25.712C12.64 28.336 10.912 30.032 8.224 30.032C5.824 30.032 4.256 28.816 4 26.768H0.0960001C0.576 30.992 3.68 33.584 8.224 33.584C13.344 33.584 16.512 30.288 16.512 25.008V10H12.896L12.672 12.176C11.744 10.48 9.888 9.488 7.52 9.488C3.008 9.488 0 12.944 0 17.552ZM3.936 17.456C3.936 14.864 5.6 12.912 8.192 12.912C10.912 12.912 12.544 14.768 12.544 17.456C12.544 20.208 10.88 22.096 8.192 22.096C5.632 22.096 3.936 20.112 3.936 17.456Z" fill="black"/>
<path d="M22.5042 6.832C23.7842 6.832 24.8403 5.776 24.8403 4.464C24.8403 3.152 23.7842 2.128 22.5042 2.128C21.1602 2.128 20.1042 3.152 20.1042 4.464C20.1042 5.776 21.1602 6.832 22.5042 6.832ZM20.5522 25.808H24.4562V10H20.5522V25.808Z" fill="black"/>
<path d="M26.9217 10V13.264H29.1937V25.808H33.0658V13.264H36.8418V10H33.0658V8.08C33.0658 6.512 33.5458 5.488 35.5298 5.488H36.9058V2.16C36.2338 2.032 35.4978 2 34.8898 2C31.4658 2 29.1937 3.792 29.1937 8.08V10H26.9217Z" fill="black"/>
<path d="M45.6055 14.224C48.8695 14.224 50.4055 15.952 50.4055 18.32C50.4055 20.912 48.7095 22.576 46.1495 22.576C43.6535 22.576 41.9895 21.04 41.9895 18.352H37.9575C37.9575 23.408 41.5095 26.224 46.0855 26.224C50.8215 26.224 54.5655 23.184 54.5655 18.384C54.5655 14.256 51.7815 11.632 48.1975 10.928L53.8935 5.68V2.416H39.0455V6.032H48.7735L42.7575 11.568V14.224H45.6055Z" fill="black"/>
<defs>
<filter id="filter0_d_502_112" x="63" y="0" width="36" height="36" filterUnits="userSpaceOnUse" color-interpolation-filters="sRGB">
<feFlood flood-opacity="0" result="BackgroundImageFix"/>
<feColorMatrix in="SourceAlpha" type="matrix" values="0 0 0 0 0 0 0 0 0 0 0 0 0 0 0 0 0 0 127 0" result="hardAlpha"/>
<feOffset dx="-3"/>
<feGaussianBlur stdDeviation="2"/>
<feComposite in2="hardAlpha" operator="out"/>
<feColorMatrix type="matrix" values="0 0 0 0 0 0 0 0 0 0 0 0 0 0 0 0 0 0 0.25 0"/>
<feBlend mode="normal" in2="BackgroundImageFix" result="effect1_dropShadow_502_112"/>
<feBlend mode="normal" in="SourceGraphic" in2="effect1_dropShadow_502_112" result="shape"/>
</filter>
</defs>
</svg>
