<svg width="196" height="74" viewBox="0 0 196 74" fill="none" xmlns="http://www.w3.org/2000/svg">
<path d="M5.859 20.088V9.504H8.451V6.75H5.859V2.592H2.565V6.75H0V9.504H2.565V20.088H5.859Z" fill="#69EACB"/>
<path d="M13.7928 20.088V12.798C13.7928 10.8 15.0078 9.342 17.0868 9.342C18.7608 9.342 19.8678 10.422 19.8678 12.663V20.088H23.1618V11.88C23.1618 8.424 21.4338 6.345 18.1398 6.345C16.2228 6.345 14.6568 7.182 13.8198 8.478V0H10.4988V20.088H13.7928Z" fill="#69EACB"/>
<path d="M32.3652 20.439C35.8482 20.439 38.2782 18.684 38.8452 15.768H35.7942C35.4162 17.037 34.2282 17.739 32.4192 17.739C30.2322 17.739 28.9902 16.551 28.7472 14.202L38.7912 14.175V13.176C38.7912 9.018 36.2532 6.345 32.2572 6.345C28.3422 6.345 25.6152 9.234 25.6152 13.419C25.6152 17.55 28.3962 20.439 32.3652 20.439ZM32.2842 9.045C34.2552 9.045 35.5242 10.26 35.5242 12.096H28.8282C29.1522 10.098 30.3402 9.045 32.2842 9.045Z" fill="#69EACB"/>
<path d="M1.338 39.9C1.338 44.828 4.198 47.952 9.654 49.14L14.758 50.284C17.398 50.856 18.498 52.132 18.498 54.288C18.498 56.972 16.122 58.6 12.382 58.6C8.774 58.6 6.574 56.972 6.53 54.244H0.898C1.03 60.008 5.518 63.66 12.382 63.66C19.466 63.66 24.13 59.788 24.13 53.804C24.13 49.008 21.446 46.192 15.946 45.004L10.886 43.904C8.202 43.288 6.97 42.012 6.97 39.724C6.97 37.04 9.214 35.368 12.69 35.368C15.858 35.368 17.838 36.996 17.97 39.768H23.602C23.426 33.96 19.29 30.352 12.778 30.352C6.002 30.352 1.338 34.268 1.338 39.9Z" fill="white"/>
<path d="M28.4331 73.164H33.8011V60.184C35.1651 62.384 37.9811 63.66 41.2371 63.66C47.7051 63.66 51.4011 58.732 51.4011 51.956C51.4011 45.136 47.3531 40.692 41.2371 40.692C37.9371 40.692 35.0771 42.144 33.7571 44.652L33.4051 41.352H28.4331V73.164ZM33.8451 52.22C33.8451 48.304 36.2651 45.576 39.9611 45.576C43.7451 45.576 45.9891 48.348 45.9891 52.22C45.9891 56.092 43.7451 58.82 39.9611 58.82C36.2651 58.82 33.8451 56.136 33.8451 52.22Z" fill="white"/>
<path d="M54.3993 52.176C54.3993 58.952 59.2833 63.616 66.0153 63.616C72.7473 63.616 77.6312 58.952 77.6312 52.176C77.6312 45.4 72.7473 40.736 66.0153 40.736C59.2833 40.736 54.3993 45.4 54.3993 52.176ZM59.7673 52.176C59.7673 48.216 62.3193 45.532 66.0153 45.532C69.7113 45.532 72.2633 48.216 72.2633 52.176C72.2633 56.136 69.7113 58.82 66.0153 58.82C62.3193 58.82 59.7673 56.136 59.7673 52.176Z" fill="white"/>
<path d="M89.0633 63.088V45.84H93.2873V41.352H89.0633V34.576H83.6953V41.352H79.5153V45.84H83.6953V63.088H89.0633Z" fill="white"/>
<path d="M103.048 30.924H97.4165V63.088H116.512V57.896H103.048V30.924Z" fill="white"/>
<path d="M122.984 36.996C124.744 36.996 126.196 35.544 126.196 33.74C126.196 31.936 124.744 30.528 122.984 30.528C121.136 30.528 119.684 31.936 119.684 33.74C119.684 35.544 121.136 36.996 122.984 36.996ZM120.3 63.088H125.668V41.352H120.3V63.088Z" fill="white"/>
<path d="M129.982 51.736C129.982 58.028 134.03 62.648 140.19 62.648C143.314 62.648 145.998 61.372 147.362 59.348V62.956C147.362 66.564 144.986 68.896 141.29 68.896C137.99 68.896 135.834 67.224 135.482 64.408H130.114C130.774 70.216 135.042 73.78 141.29 73.78C148.33 73.78 152.686 69.248 152.686 61.988V41.352H147.714L147.406 44.344C146.13 42.012 143.578 40.648 140.322 40.648C134.118 40.648 129.982 45.4 129.982 51.736ZM135.394 51.604C135.394 48.04 137.682 45.356 141.246 45.356C144.986 45.356 147.23 47.908 147.23 51.604C147.23 55.388 144.942 57.984 141.246 57.984C137.726 57.984 135.394 55.256 135.394 51.604Z" fill="white"/>
<path d="M163.61 63.088V51.208C163.61 47.952 165.59 45.576 168.978 45.576C171.706 45.576 173.51 47.336 173.51 50.988V63.088H178.878V49.712C178.878 44.08 176.062 40.692 170.694 40.692C167.57 40.692 165.018 42.056 163.654 44.168V30.352H158.242V63.088H163.61Z" fill="white"/>
<path d="M191.544 63.088V45.84H195.768V41.352H191.544V34.576H186.176V41.352H181.996V45.84H186.176V63.088H191.544Z" fill="white"/>
</svg>
